<svg width="668" height="244" viewBox="0 0 668 244" fill="none" xmlns="http://www.w3.org/2000/svg">
<path d="M168.64 159V69.6H201.88C207.96 69.6 213.32 70.72 217.96 72.96C222.68 75.12 226.36 78.32 229 82.56C231.64 86.72 232.96 91.8 232.96 97.8C232.96 103.96 231.48 109.2 228.52 113.52C225.64 117.84 221.72 121.04 216.76 123.12L237.28 159H218.8L196.84 119.76L207.4 126H184.96V159H168.64ZM184.96 111.6H202.12C205.08 111.6 207.64 111.04 209.8 109.92C211.96 108.72 213.64 107.08 214.84 105C216.04 102.92 216.64 100.52 216.64 97.8C216.64 95 216.04 92.6 214.84 90.6C213.64 88.52 211.96 86.92 209.8 85.8C207.64 84.6 205.08 84 202.12 84H184.96V111.6ZM273.983 160.44C267.263 160.44 261.383 158.92 256.343 155.88C251.303 152.84 247.383 148.72 244.583 143.52C241.783 138.32 240.383 132.56 240.383 126.24C240.383 119.68 241.783 113.88 244.583 108.84C247.463 103.72 251.343 99.68 256.223 96.72C261.183 93.76 266.703 92.28 272.783 92.28C277.903 92.28 282.383 93.12 286.223 94.8C290.143 96.48 293.463 98.8 296.183 101.76C298.903 104.72 300.983 108.12 302.423 111.96C303.863 115.72 304.583 119.8 304.583 124.2C304.583 125.32 304.503 126.48 304.343 127.68C304.263 128.88 304.063 129.92 303.743 130.8H253.343V118.8H294.863L287.423 124.44C288.143 120.76 287.943 117.48 286.823 114.6C285.783 111.72 284.023 109.44 281.543 107.76C279.143 106.08 276.223 105.24 272.783 105.24C269.503 105.24 266.583 106.08 264.023 107.76C261.463 109.36 259.503 111.76 258.143 114.96C256.863 118.08 256.383 121.88 256.703 126.36C256.383 130.36 256.903 133.92 258.263 137.04C259.703 140.08 261.783 142.44 264.503 144.12C267.303 145.8 270.503 146.64 274.103 146.64C277.703 146.64 280.743 145.88 283.223 144.36C285.783 142.84 287.783 140.8 289.223 138.24L301.943 144.48C300.663 147.6 298.663 150.36 295.943 152.76C293.223 155.16 289.983 157.04 286.223 158.4C282.543 159.76 278.463 160.44 273.983 160.44ZM347.94 160.44C341.46 160.44 335.62 158.96 330.42 156C325.3 152.96 321.26 148.88 318.3 143.76C315.34 138.56 313.86 132.72 313.86 126.24C313.86 119.76 315.34 113.96 318.3 108.84C321.26 103.72 325.3 99.68 330.42 96.72C335.62 93.76 341.46 92.28 347.94 92.28C352.58 92.28 356.9 93.12 360.9 94.8C364.9 96.4 368.34 98.64 371.22 101.52C374.18 104.32 376.3 107.68 377.58 111.6L363.78 117.6C362.58 114.32 360.54 111.68 357.66 109.68C354.86 107.68 351.62 106.68 347.94 106.68C344.5 106.68 341.42 107.52 338.7 109.2C336.06 110.88 333.98 113.2 332.46 116.16C330.94 119.12 330.18 122.52 330.18 126.36C330.18 130.2 330.94 133.6 332.46 136.56C333.98 139.52 336.06 141.84 338.7 143.52C341.42 145.2 344.5 146.04 347.94 146.04C351.7 146.04 354.98 145.04 357.78 143.04C360.58 141.04 362.58 138.36 363.78 135L377.58 141.24C376.3 144.92 374.22 148.24 371.34 151.2C368.46 154.08 365.02 156.36 361.02 158.04C357.02 159.64 352.66 160.44 347.94 160.44ZM421.428 160.44C415.028 160.44 409.188 158.96 403.908 156C398.708 153.04 394.548 149 391.428 143.88C388.388 138.76 386.868 132.92 386.868 126.36C386.868 119.8 388.388 113.96 391.428 108.84C394.548 103.72 398.708 99.68 403.908 96.72C409.108 93.76 414.948 92.28 421.428 92.28C427.828 92.28 433.628 93.76 438.828 96.72C444.028 99.68 448.148 103.72 451.188 108.84C454.308 113.88 455.868 119.72 455.868 126.36C455.868 132.92 454.308 138.76 451.188 143.88C448.068 149 443.908 153.04 438.708 156C433.508 158.96 427.748 160.44 421.428 160.44ZM421.428 146.04C424.948 146.04 428.028 145.2 430.668 143.52C433.388 141.84 435.508 139.52 437.028 136.56C438.628 133.52 439.428 130.12 439.428 126.36C439.428 122.52 438.628 119.16 437.028 116.28C435.508 113.32 433.388 111 430.668 109.32C428.028 107.56 424.948 106.68 421.428 106.68C417.828 106.68 414.668 107.56 411.948 109.32C409.228 111 407.068 113.32 405.468 116.28C403.948 119.16 403.188 122.52 403.188 126.36C403.188 130.12 403.948 133.52 405.468 136.56C407.068 139.52 409.228 141.84 411.948 143.52C414.668 145.2 417.828 146.04 421.428 146.04ZM491.069 160.44C486.029 160.44 481.629 159.32 477.869 157.08C474.189 154.84 471.349 151.72 469.349 147.72C467.429 143.72 466.469 139.04 466.469 133.68V93.72H482.189V132.36C482.189 135.08 482.709 137.48 483.749 139.56C484.869 141.56 486.429 143.16 488.429 144.36C490.509 145.48 492.829 146.04 495.389 146.04C497.949 146.04 500.229 145.48 502.229 144.36C504.229 143.16 505.789 141.52 506.909 139.44C508.029 137.36 508.589 134.88 508.589 132V93.72H524.309V159H509.429V146.16L510.749 148.44C509.229 152.44 506.709 155.44 503.189 157.44C499.749 159.44 495.709 160.44 491.069 160.44ZM538.922 183V93.72H553.682V106.68L552.242 103.44C554.482 99.92 557.522 97.2 561.362 95.28C565.202 93.28 569.642 92.28 574.682 92.28C580.842 92.28 586.402 93.8 591.362 96.84C596.322 99.88 600.242 103.96 603.122 109.08C606.082 114.2 607.562 119.96 607.562 126.36C607.562 132.68 606.122 138.44 603.242 143.64C600.362 148.84 596.442 152.96 591.482 156C586.522 158.96 580.882 160.44 574.562 160.44C569.842 160.44 565.482 159.52 561.482 157.68C557.562 155.76 554.442 153.04 552.122 149.52L554.642 146.4V183H538.922ZM572.762 146.04C576.362 146.04 579.562 145.2 582.362 143.52C585.162 141.84 587.322 139.52 588.842 136.56C590.442 133.6 591.242 130.2 591.242 126.36C591.242 122.52 590.442 119.16 588.842 116.28C587.322 113.32 585.162 111 582.362 109.32C579.562 107.56 576.362 106.68 572.762 106.68C569.322 106.68 566.202 107.52 563.402 109.2C560.682 110.88 558.522 113.24 556.922 116.28C555.402 119.24 554.642 122.6 554.642 126.36C554.642 130.2 555.402 133.6 556.922 136.56C558.522 139.52 560.682 141.84 563.402 143.52C566.202 145.2 569.322 146.04 572.762 146.04Z" fill="#09090B"/>
<path fill-rule="evenodd" clip-rule="evenodd" d="M96.1621 70C92.8484 70 90.1621 72.6863 90.1621 76V99.8682C90.1621 103.404 89.0688 106.853 87.0319 109.743V109.743C83.821 114.298 78.5957 117.008 73.0225 117.008H58C54.6863 117.008 52 119.694 52 123.008V152.881C52 156.195 54.6863 158.881 58 158.881H87.8388C91.1525 158.881 93.8388 156.195 93.8388 152.881V132.469C93.8388 128.343 95.1147 124.319 97.4915 120.947L97.9112 120.351C101.658 115.035 107.755 111.873 114.259 111.873H126.001C129.315 111.873 132.001 109.187 132.001 105.873V76C132.001 72.6863 129.315 70 126.001 70H96.1621Z" fill="#09090B"/>
</svg>
