<svg width="20" height="20" viewBox="0 0 20 20" fill="none" xmlns="http://www.w3.org/2000/svg">
<path d="M0.34 12.6301C0.94 12.4101 1.56 12.3001 2.22 12.3001C3.56 12.3001 4.73 12.7201 5.73 13.5601L2.59 16.7001C1.53 15.5001 0.78 14.1301 0.34 12.6301ZM13.56 7.80008C15.53 9.27008 17.66 9.63008 19.94 8.88008C19.97 9.09008 20 9.47008 20 10.0001C20 11.0301 19.75 12.1801 19.28 13.4501C18.81 14.7101 18.23 15.7301 17.55 16.5001L11.22 10.1901L13.56 7.80008ZM6.77 14.6401C7.83 16.1701 8.05 17.8401 7.42 19.6601C6 19.2501 4.73 18.6101 3.67 17.7301L6.77 14.6401ZM10.19 11.2201L16.5 17.5501C14.33 19.4501 11.78 20.2501 8.88 19.9401C9.09 19.2801 9.2 18.5601 9.2 17.7801C9.2 17.1601 9.06 16.4301 8.78 15.6001C8.5 14.7701 8.17 14.0901 7.8 13.5601L10.19 11.2201ZM6.81 12.5001C5.88 11.6701 4.8 11.1501 3.58 10.9101C2.36 10.6801 1.19 10.7501 0.0599999 11.1301C0.0299999 10.9101 0 10.5301 0 10.0001C0 8.97008 0.25 7.82008 0.72 6.55008C1.19 5.29008 1.77 4.27008 2.45 3.50008L9.11 10.1901L6.81 12.5001ZM13.56 5.73008C12.22 4.08008 11.91 2.28008 12.63 0.340077C13.25 0.500077 13.96 0.800077 14.76 1.26008C15.55 1.71008 16.2 2.16008 16.7 2.59008L13.56 5.73008ZM19.66 7.38008C19.06 7.59008 18.44 7.70008 17.78 7.70008C16.69 7.70008 15.64 7.38008 14.64 6.72008L17.73 3.67008C18.61 4.77008 19.25 6.00008 19.66 7.38008ZM10.19 9.11008L3.5 2.45008C5.67 0.550077 8.22 -0.249923 11.13 0.0600769C10.91 0.720077 10.8 1.44008 10.8 2.22008C10.8 2.94008 10.96 3.75008 11.29 4.66008C11.62 5.56008 12 6.28008 12.5 6.81008L10.19 9.11008Z" fill="white"/>
</svg>
